<svg width="100" height="31" viewBox="0 0 100 31" fill="none" xmlns="http://www.w3.org/2000/svg">
<path d="M10.3646 30.4199C8.41704 30.4199 6.65627 30.0861 5.08224 29.4186C3.53489 28.751 2.30768 27.7897 1.40062 26.5347C0.493551 25.2797 0.0266784 23.7977 0 22.0888H6.00265C6.08268 23.237 6.48286 24.1449 7.20317 24.8124C7.95017 25.48 8.96395 25.8138 10.2445 25.8138C11.5518 25.8138 12.5789 25.5067 13.3259 24.8925C14.0729 24.2517 14.4464 23.4239 14.4464 22.4092C14.4464 21.5814 14.1929 20.9005 13.686 20.3665C13.1791 19.8324 12.5389 19.4186 11.7652 19.1248C11.0182 18.8044 9.97773 18.4573 8.64381 18.0834C6.82968 17.5494 5.34902 17.0287 4.20185 16.5214C3.08136 15.9873 2.1076 15.1996 1.28056 14.1582C0.480212 13.0901 0.0800353 11.6749 0.0800353 9.91255C0.0800353 8.25701 0.493551 6.81509 1.32058 5.58678C2.14761 4.35848 3.30812 3.4239 4.80212 2.78304C6.29611 2.11549 8.00353 1.78171 9.92437 1.78171C12.8056 1.78171 15.14 2.48932 16.9275 3.90454C18.7416 5.29306 19.742 7.24232 19.9288 9.75234H13.7661C13.7127 8.79105 13.2992 8.00334 12.5255 7.38919C11.7785 6.74833 10.7781 6.4279 9.5242 6.4279C8.43038 6.4279 7.54999 6.70828 6.88303 7.26902C6.24275 7.82977 5.92261 8.64419 5.92261 9.71228C5.92261 10.4599 6.16272 11.0875 6.64293 11.5948C7.14982 12.0754 7.76342 12.476 8.48374 12.7964C9.23073 13.0901 10.2712 13.4373 11.6051 13.8378C13.4192 14.3718 14.8999 14.9059 16.0471 15.4399C17.1942 15.974 18.1813 16.775 19.0084 17.8431C19.8354 18.9112 20.2489 20.3131 20.2489 22.0487C20.2489 23.5441 19.8621 24.9326 19.0884 26.2143C18.3147 27.496 17.1809 28.524 15.6869 29.2984C14.1929 30.0461 12.4188 30.4199 10.3646 30.4199Z" fill="#7F23FF"/>
<path d="M31.6289 12.5561V23.2904C31.6289 24.0381 31.8023 24.5854 32.1492 24.9326C32.5227 25.253 33.1363 25.4132 33.99 25.4132H36.5911V30.1395H33.0696C28.3475 30.1395 25.9865 27.8431 25.9865 23.2503V12.5561H23.3453V7.94993H25.9865V2.46262H31.6289V7.94993H36.5911V12.5561H31.6289Z" fill="#7F23FF"/>
<path d="M61.2298 18.5641C61.2298 19.3652 61.1764 20.0861 61.0697 20.727H44.8626C44.996 22.3291 45.5562 23.5841 46.5433 24.492C47.5304 25.3999 48.7443 25.8538 50.1849 25.8538C52.2658 25.8538 53.7465 24.9593 54.6269 23.1702H60.6695C60.0293 25.3064 58.8021 27.0688 56.9879 28.4573C55.1738 29.8191 52.9461 30.5 50.305 30.5C48.1707 30.5 46.2499 30.0327 44.5424 29.0981C42.8617 28.1368 41.5411 26.7884 40.5807 25.0527C39.6469 23.3171 39.1801 21.3144 39.1801 19.0447C39.1801 16.7483 39.6469 14.7323 40.5807 12.9967C41.5144 11.261 42.8217 9.9259 44.5024 8.99132C46.1832 8.05674 48.1173 7.58945 50.305 7.58945C52.4126 7.58945 54.2934 8.04339 55.9475 8.95127C57.6282 9.85914 58.9221 11.1542 59.8292 12.8364C60.7629 14.492 61.2298 16.4012 61.2298 18.5641ZM55.4272 16.9619C55.4006 15.52 54.8803 14.3718 53.8665 13.5174C52.8528 12.6362 51.6122 12.1956 50.1449 12.1956C48.7576 12.1956 47.5838 12.6228 46.6234 13.4773C45.6896 14.3051 45.116 15.4666 44.9026 16.9619H55.4272Z" fill="#7F23FF"/>
<path d="M70.9216 0.5V30.1395H65.3191V0.5H70.9216Z" fill="#7F23FF"/>
<path d="M82.0593 0.5V30.1395H76.4568V0.5H82.0593Z" fill="#7F23FF"/>
<path d="M93.197 11.3945C93.9173 10.2196 94.8511 9.2984 95.9982 8.63084C97.1721 7.96328 98.506 7.62951 100 7.62951V13.5174H98.5193C96.7586 13.5174 95.4246 13.9312 94.5176 14.759C93.6372 15.5868 93.197 17.0287 93.197 19.0848V30.1395H87.5945V7.94993H93.197V11.3945Z" fill="#7F23FF"/>
</svg>
